<svg width="416" height="32" viewBox="0 0 416 32" fill="none" xmlns="http://www.w3.org/2000/svg">
<g clip-path="url(#clip0_1154_3245)">
<rect width="719.007" height="31.9997" fill="white"/>
<path d="M157.219 -0.0527344L134.714 32.1875H179.724L157.219 -0.0527344Z" fill="white"/>
<path d="M337.131 -0.0527344L314.625 32.1875H359.636L337.131 -0.0527344Z" fill="white"/>
<path d="M22.189 -0.0527344L44.6943 32.1875H-0.316284L22.189 -0.0527344Z" fill="#1A1A1A"/>
<path d="M202.23 -0.0527344L224.735 32.1875H179.724L202.23 -0.0527344Z" fill="#1A1A1A"/>
<path d="M382.141 -0.0527344L404.646 32.1875H359.636L382.141 -0.0527344Z" fill="#1A1A1A"/>
<path d="M179.727 32.1882L157.222 -0.0519562L202.232 -0.0519562L179.727 32.1882Z" fill="black"/>
<path d="M-1.90735e-06 31.9998L-22.2128 -0.0519562L22.7978 -0.0519562L-1.90735e-06 31.9998Z" fill="black"/>
<path d="M359.636 32.1882L337.131 -0.0519562L382.142 -0.0519562L359.636 32.1882Z" fill="black"/>
<path d="M89.7037 32.1882L67.1984 -0.0519562L112.209 -0.0519562L89.7037 32.1882Z" fill="#4C9D34"/>
<path d="M269.746 32.1882L247.24 -0.0519562L292.251 -0.0519562L269.746 32.1882Z" fill="#4C9D34"/>
<path d="M134.714 32.1882L157.22 -0.0519562L112.209 -0.0519562L134.714 32.1882Z" fill="#E5E5E5"/>
<path d="M314.626 32.1882L337.131 -0.0519562L292.121 -0.0519562L314.626 32.1882Z" fill="#E5E5E5"/>
<path d="M44.6938 32.1882L22.1886 -0.0519562L67.1991 -0.0519562L44.6938 32.1882Z" fill="#1A7547"/>
<path d="M224.736 32.1882L202.23 -0.0519562L247.241 -0.0519562L224.736 32.1882Z" fill="#1A7547"/>
<path d="M404.647 32.1882L382.142 -0.0519562L427.153 -0.0519562L404.647 32.1882Z" fill="#1A7547"/>
<path d="M112.211 -0.0527344L134.716 32.1875H89.7058L112.211 -0.0527344Z" fill="#55AE3A"/>
<path d="M292.252 -0.0527344L314.757 32.1875H269.746L292.252 -0.0527344Z" fill="#55AE3A"/>
<path d="M67.2 -0.0527344L89.7053 32.1875H44.6948L67.2 -0.0527344Z" fill="#006633"/>
<path d="M247.243 -0.0527344L269.748 32.1875H224.738L247.243 -0.0527344Z" fill="#006633"/>
<path d="M426.894 -0.0527344L449.4 32.1875H404.389L426.894 -0.0527344Z" fill="#006633"/>
<rect width="719.007" height="31.9997" fill="#006633" fill-opacity="0.8"/>
</g>
<defs>
<clipPath id="clip0_1154_3245">
<rect width="719.007" height="31.9997" fill="white"/>
</clipPath>
</defs>
</svg>
